<?xml version="1.0" encoding="UTF-8"?><svg id="b" xmlns="http://www.w3.org/2000/svg" viewBox="0 0 257.359 53.202"><g id="c"><path d="m57.2429,43.7289c.573-.11.888-.573.888-1.053v-9.373c0-.462-.333-.869-.888-.998v-.24h5.102c1.072,0,1.849-.056,2.477-.093l-.037,2.07h-.24c-.24-.739-.795-1.183-1.756-1.183h-3.125v4.585h2.828c.518,0,.814-.203,1.054-.647h.241c-.019.185-.019.795-.019,1.016,0,.204.038.833.038,1.036h-.241c-.24-.425-.555-.647-1.073-.647h-2.828v4.529c0,.462.241.85,1.221.998v.24c-.222,0-1.535-.037-1.849-.037-.277,0-1.553.037-1.793.037v-.24Z"/><path d="m65.8607,36.5009c.702-.203,1.516-.37,2.606-.37,2.201,0,2.644,1.129,2.644,2.367v3.844c0,.593.184.74.407.74.129,0,.332-.019.425-.074l.129.295s-.389.204-.777.463c-.295.203-.684.517-.684.517-.258-.24-.572-.646-.757-1.164-.537.591-1.405.98-2.385.98-1.405,0-2.403-.665-2.403-2.163,0-1.405,1.331-2.126,2.68-2.366.37-.056,1.553-.075,1.96-.075v-1.201c0-.831-.518-1.515-1.645-1.515-.907,0-1.516.443-1.96,1.22h-.24v-1.498Zm3.845,3.587h-1.09c-1.092,0-2.053.59-2.053,1.773,0,.851.573,1.35,1.276,1.35.739,0,1.478-.407,1.867-1.035v-2.088Z"/><path d="m79.8037,42.7311c-.407.48-1.423,1.368-2.884,1.368-2.606,0-3.993-1.59-3.993-3.993,0-2.533,1.72-3.975,3.957-3.975.776,0,1.885.167,2.588.37v1.571h-.24c-.445-.776-1.203-1.275-2.293-1.275-1.553,0-2.514,1.238-2.514,3.106,0,2.07,1.127,3.308,2.736,3.308.997,0,1.867-.351,2.329-.831l.314.351Z"/><path d="m81.8209,38.1836c0-.592-.332-.869-.942-.998v-.203l2.144-.851h.203v4.677c0,1.311.278,2.348,1.59,2.348.832,0,1.552-.556,1.923-1.018v-3.955c0-.592-.333-.869-.943-.998v-.203l2.145-.851h.202v6.21c0,.593.185.74.407.74.13,0,.333-.019.425-.074l.13.296s-.389.203-.777.462c-.296.203-.684.518-.684.518-.259-.24-.757-.74-.85-1.423-.646.646-1.553,1.239-2.699,1.239-1.59,0-2.274-1.018-2.274-2.257v-3.659Z"/><path d="m90.3523,43.7472c.388-.166.813-.369.813-.721v-9.649c0-.591-.333-.869-.942-.999v-.203l2.144-.85h.204v11.701c0,.371.388.536.832.721v.222c-.241,0-1.314-.037-1.554-.037s-1.275.037-1.497.037v-.222Z"/><path d="m95.6772,36.9629h-1.146v-.443l.999-.296c.535-.481.794-1.221.942-2.089h.61v2.126h2.274v.702h-2.274v4.733c0,.98.314,1.312.887,1.312.554,0,.906-.277,1.146-.536l.296.277c-.203.389-.924,1.35-1.978,1.35-.888,0-1.756-.425-1.756-2.163v-4.973Z"/><path d="m100.7692,46.6499c.166.074.425.093.703.093.351,0,.868-.149,1.164-.334.518-.314.98-1.367,1.461-2.495l-2.847-6.489c-.24-.555-.444-.702-.925-.868v-.222c.241,0,1.184.036,1.424.036s1.238-.036,1.479-.036v.222c-.37.055-.518.295-.518.517,0,.186.111.426.203.629l1.905,4.529,1.885-4.473c.111-.259.111-.518.074-.703-.056-.24-.221-.426-.591-.499v-.222c.221,0,1.016.036,1.238.036s1.017-.036,1.238-.036v.222c-.499.184-.812.462-1.072,1.071l-2.772,6.508c-1.054,2.458-1.664,3.494-3.993,3.494l-.056-.98Z"/><path d="m112.5579,40.1241c0-2.293,1.609-3.993,3.883-3.993s3.882,1.7,3.882,3.993c0,2.311-1.572,3.975-3.882,3.975-2.292,0-3.883-1.664-3.883-3.975m6.267-.018c0-1.516-.684-3.309-2.384-3.309-1.701,0-2.385,1.793-2.385,3.309,0,1.515.684,3.327,2.385,3.327,1.7,0,2.384-1.812,2.384-3.327"/><path d="m121.6831,43.7472c.388-.166.813-.369.813-.721v-6.063h-1.053v-.518l1.053-.185v-2.291c0-1.757,1.294-2.644,2.385-2.644.702,0,1.294.222,1.811.369v1.498h-.24c-.369-.647-.684-1.202-1.534-1.202-.463,0-1.016.5-1.016,1.498v2.772h2.014v.703h-2.014v6.063c0,.371.498.573,1.016.721v.222c-.24,0-1.497-.037-1.737-.037s-1.276.037-1.498.037v-.222Z"/><path d="m130.1999,43.7291c.685-.241.887-.591,1.146-1.239l3.716-9.187c.166-.408.425-1.35.425-1.35h.962s.24.942.387,1.35l3.439,9.187c.259.684.517,1.053,1.201,1.239v.24c-.277,0-1.367-.037-1.645-.037-.276,0-1.33.037-1.608.037v-.24c.499-.166.61-.444.554-.776-.018-.149-.166-.574-.221-.703l-.703-1.794h-4.713l-.629,1.535c-.074.167-.259.813-.277.907-.075.387.148.665.666.831v.24c-.222,0-.999-.037-1.239-.037-.241,0-1.165.037-1.461.037v-.24Zm7.376-4.067l-1.997-5.268-2.125,5.268h4.122Z"/><path d="m142.4993,43.7472c.388-.166.813-.369.813-.721v-4.843c0-.592-.333-.869-.943-.998v-.203l2.07-.851h.204c.018.351.075,1.387.075,1.387.461-.611,1.015-1.387,2.161-1.387.426,0,.833.111,1.184.258v1.683h-.24c-.296-.536-.758-.943-1.369-.943-1.09,0-1.736.814-1.736,1.701v4.196c0,.371.388.536.831.721v.222c-.24,0-1.313-.037-1.553-.037s-1.275.037-1.497.037v-.222Z"/><path d="m150.2165,36.9629h-1.146v-.443l.998-.296c.535-.481.794-1.221.943-2.089h.61v2.126h2.273v.702h-2.273v4.733c0,.98.313,1.312.887,1.312.555,0,.905-.277,1.146-.536l.295.277c-.202.389-.923,1.35-1.977,1.35-.888,0-1.756-.425-1.756-2.163v-4.973Z"/><path d="m155.4572,42.1018h.241c.517.924,1.108,1.332,2.07,1.332,1.053,0,1.626-.39,1.626-1.074,0-.443-.222-.739-.61-.923l-2.292-1.127c-.739-.371-1.201-.943-1.201-1.849,0-1.516,1.367-2.329,2.828-2.329.757,0,1.701.185,2.329.369v1.571h-.24c-.407-.721-1.09-1.275-2.052-1.275-.906,0-1.479.481-1.479,1.165,0,.59.222.887.832,1.183l2.329,1.127c.406.204.906.702.906,1.553,0,1.46-1.146,2.274-2.958,2.274-.758,0-1.701-.185-2.329-.37v-1.627Z"/><path d="m166.6933,36.5009c.702-.203,1.516-.37,2.606-.37,2.201,0,2.644,1.129,2.644,2.367v3.844c0,.593.184.74.406.74.13,0,.333-.019.426-.074l.129.295s-.389.204-.777.463c-.295.203-.684.517-.684.517-.258-.24-.572-.646-.758-1.164-.536.591-1.404.98-2.384.98-1.405,0-2.403-.665-2.403-2.163,0-1.405,1.331-2.126,2.681-2.366.368-.056,1.552-.075,1.959-.075v-1.201c0-.831-.518-1.515-1.645-1.515-.907,0-1.516.443-1.96,1.22h-.24v-1.498Zm3.845,3.587h-1.09c-1.092,0-2.053.59-2.053,1.773,0,.851.573,1.35,1.276,1.35.739,0,1.478-.407,1.867-1.035v-2.088Z"/><path d="m174.2363,43.7472c.389-.166.814-.369.814-.721v-4.843c0-.592-.333-.869-.943-.998v-.203l2.07-.851h.204l.074,1.201c.665-.628,1.497-1.201,2.643-1.201,1.589,0,2.514,1.016,2.514,2.255v4.64c0,.371.388.536.832.721v.222c-.24,0-1.312-.037-1.552-.037-.241,0-1.277.037-1.498.037v-.222c.388-.166.813-.369.813-.721v-3.604c0-1.313-.517-2.348-1.829-2.348-.833,0-1.554.554-1.923,1.016v4.936c0,.371.388.536.832.721v.222c-.241,0-1.313-.037-1.553-.037-.241,0-1.276.037-1.498.037v-.222Z"/><path d="m191.6002,43.3028s-.388.204-.777.463c-.295.203-.683.517-.683.517-.259-.24-.573-.646-.759-1.164-.535.591-1.57.98-2.717.98-1.885,0-3.197-1.812-3.197-3.883,0-2.181,1.386-4.084,3.456-4.084.943,0,1.756.332,2.311.943v-3.697c0-.592-.333-.869-.943-1v-.203l2.144-.849h.204v11.016c0,.593.184.74.406.74.13,0,.333-.019.426-.074l.129.295Zm-2.366-4.842c-.129-.925-1.072-1.498-2.089-1.498-1.442,0-2.181,1.535-2.181,3.051,0,1.645.869,3.197,2.403,3.197.721,0,1.498-.332,1.867-.997v-3.753Z"/><path d="m197.1827,41.5475h.241c.128.518.48,1.072.868,1.331.555.37,1.441.537,2.089.537,1.423,0,2.569-.537,2.569-2.035,0-.665-.166-1.293-.739-1.682-.961-.666-2.311-1.127-3.513-1.737-.998-.499-1.793-1.239-1.793-2.755,0-2.311,1.904-3.327,4.179-3.327.924,0,1.976.259,2.902.222l.092,2.199h-.24c-.148-.462-.518-.905-.906-1.164-.5551-.351-1.331-.518-1.997-.518-1.423,0-2.496.739-2.496,1.978,0,.999.481,1.59,1.147,1.979,1.072.628,2.514,1.127,3.586,1.793.777.48,1.294,1.164,1.294,2.31,0,2.2-1.646,3.476-3.993,3.476-1.091,0-2.107-.24-3.217-.555l-.073-2.052Z"/><path d="m212.4575,42.7311c-.406.48-1.424,1.368-2.884,1.368-2.606,0-3.993-1.59-3.993-3.993,0-2.533,1.72-3.975,3.957-3.975.776,0,1.885.167,2.588.37v1.571h-.2401c-.444-.776-1.203-1.275-2.293-1.275-1.553,0-2.514,1.238-2.514,3.106,0,2.07,1.127,3.308,2.736,3.308.998,0,1.867-.351,2.329-.831l.314.351Z"/><path d="m214.0049,43.7472c.388-.166.813-.369.813-.721v-4.843c0-.592-.333-.869-.942-.998v-.203l2.144-.851h.203v6.895c0,.371.388.536.832.721v.222c-.241,0-1.313-.037-1.553-.037s-1.275.037-1.497.037v-.222Zm1.46-10.666c.444,0,.832.389.832.813,0,.444-.388.813-.832.813s-.85-.369-.85-.813c0-.424.406-.813.85-.813"/><path d="m225.1094,42.9161c-.406.481-1.238,1.183-2.699,1.183-2.607,0-3.992-1.59-3.992-3.993,0-2.44,1.682-3.975,3.696-3.975,1.96,0,3.235,1.387,3.142,2.976,0,.13-.0179.297-.055.388h-5.25c-.24,2.126.943,3.716,2.699,3.716.999,0,1.683-.167,2.144-.647l.315.352Zm-1.349-4.049c.129-.924-.463-2.07-1.628-2.07-1.219,0-1.941,1.127-2.106,2.07h3.734Z"/><path d="m226.6391,43.7472c.389-.166.813-.369.813-.721v-4.843c0-.592-.332-.869-.942-.998v-.203l2.07-.851h.204l.074,1.201c.664-.628,1.497-1.201,2.643-1.201,1.589,0,2.513,1.016,2.513,2.255v4.64c0,.371.388.536.833.721v.222c-.241,0-1.313-.037-1.553-.037-.241,0-1.276.037-1.498.037v-.222c.389-.166.814-.369.814-.721v-3.604c0-1.313-.517-2.348-1.83-2.348-.832,0-1.553.554-1.922,1.016v4.936c0,.371.388.536.831.721v.222c-.24,0-1.313-.037-1.553-.037-.241,0-1.275.037-1.497.037v-.222Z"/><path d="m242.6717,42.7311c-.406.48-1.424,1.368-2.884,1.368-2.606,0-3.992-1.59-3.992-3.993,0-2.533,1.718-3.975,3.956-3.975.776,0,1.885.167,2.588.37v1.571h-.241c-.443-.776-1.201-1.275-2.292-1.275-1.553,0-2.514,1.238-2.514,3.106,0,2.07,1.127,3.308,2.736,3.308.997,0,1.867-.351,2.329-.831l.314.351Z"/><path d="m250.3077,42.9161c-.406.481-1.238,1.183-2.699,1.183-2.607,0-3.992-1.59-3.992-3.993,0-2.44,1.682-3.975,3.697-3.975,1.959,0,3.234,1.387,3.142,2.976,0,.13-.019.297-.055.388h-5.251c-.24,2.126.943,3.716,2.699,3.716.999,0,1.684-.167,2.145-.647l.314.352Zm-1.349-4.049c.129-.924-.462-2.07-1.627-2.07-1.219,0-1.942,1.127-2.107,2.07h3.734Z"/><path d="m252.0721,42.1018h.24c.517.924,1.109,1.332,2.072,1.332,1.052,0,1.625-.39,1.625-1.074,0-.443-.221-.739-.609-.923l-2.293-1.127c-.739-.371-1.201-.943-1.201-1.849,0-1.516,1.367-2.329,2.828-2.329.758,0,1.701.185,2.329.369v1.571h-.2401c-.407-.721-1.091-1.275-2.052-1.275-.9059,0-1.479.481-1.479,1.165,0,.59.221.887.832,1.183l2.329,1.127c.407.204.906.702.906,1.553,0,1.46-1.146,2.274-2.957,2.274-.759,0-1.701-.185-2.33-.37v-1.627Z"/><path d="m110.705,9.4462c-.341-.744-.856-1.29-1.735-1.483v-.433c.545,0,2.361.065,2.778.065.386,0,2.028-.065,2.588-.065v.423c-.497.095-1.068.373-1.068.884,0,.362.222.861.641,1.797l3.985,9.052,3.762-9.067c.297-.732.511-1.295.511-1.729,0-.482-.442-.809-1.066-.937v-.423c.498,0,1.709.065,2.094.065.35,0,1.788-.065,2.336-.065v.433c-.94.251-1.512.77-2.034,1.995l-5.54,13.066h-1.165l-6.087-13.578Z"/><path d="m56.9242,22.5235c.722-.164,1.231-.491,1.231-1.312v-11.976c0-.787-.475-1.116-1.231-1.313v-.427c.377,0,2.016.065,2.411.065.459,0,2.196-.065,2.575-.065v.427c-.722.165-1.263.492-1.263,1.313v5.005h8.925v-5.005c0-.821-.472-1.148-1.226-1.313v-.427c.375,0,2.081.065,2.539.065.394,0,2.066-.065,2.444-.065v.427c-.723.165-1.262.492-1.262,1.313v11.976c0,.788.504,1.115,1.262,1.312v.395c-.378,0-2.05-.033-2.444-.033-.458,0-2.164.033-2.539.033v-.395c.719-.164,1.226-.491,1.226-1.312v-5.66h-8.925v5.66c0,.821.507,1.115,1.263,1.312v.395c-.379,0-2.116-.033-2.575-.033-.395,0-2.034.033-2.411.033v-.395Zm18.854,0c.973-.229,1.508-.86,1.867-1.706l4.933-11.875c.208-.492.455-1.5.455-1.5h1.38s.247,1.011.454,1.503l5.216,11.906c.371.819.773,1.41,1.811,1.672l-.002.395c-.567,0-2.322-.033-2.721-.033s-2.073.033-2.639.033l.002-.395c.761-.187,1-.574,1-.948,0-.317-.13-.674-.289-1.046l-1.105-2.521-5.78-.004-1.011,2.538c-.117.29-.252.705-.252.981,0,.426.224.771,1.086,1l-.001.395c-.513,0-1.856-.033-2.175-.033l-2.23.033.001-.395Zm9.823-5.765l-2.454-5.719-2.284,5.719h4.738Zm-9.823,5.765c.973-.229,1.508-.86,1.867-1.706l4.933-11.875c.208-.492.455-1.5.455-1.5h1.38s.247,1.011.454,1.503l5.216,11.906c.371.819.773,1.41,1.811,1.672l-.002.395c-.567,0-2.322-.033-2.721-.033s-2.073.033-2.639.033l.002-.395c.761-.187,1-.574,1-.948,0-.317-.13-.674-.289-1.046l-1.105-2.521-5.78-.004-1.011,2.538c-.117.29-.252.705-.252.981,0,.426.224.771,1.086,1l-.001.395c-.513,0-1.856-.033-2.175-.033l-2.23.033.001-.395Zm9.823-5.765l-2.454-5.719-2.284,5.719h4.738Zm39.081,5.765c.972-.229,1.509-.86,1.861-1.706l4.94-11.875c.207-.492.452-1.5.452-1.5h1.382s.246,1.011.454,1.503l5.212,11.906c.372.819.776,1.41,1.814,1.672l-.003.395c-.566,0-2.32-.033-2.72-.033-.399,0-2.074.033-2.64.033l.006-.395c.758-.187.997-.574.997-.948,0-.317-.132-.674-.29-1.046l-1.103-2.521-5.783-.004-1.009,2.538c-.118.29-.251.705-.251.981,0,.426.222.771,1.084,1l-.002.395c-.51,0-1.814-.033-2.129-.033l-2.276.033.004-.395Zm9.822-5.765l-2.452-5.719-2.288,5.719h4.74Zm25.836,5.765c.928-.164,1.434-.531,1.434-1.377v-11.911c0-.822-.502-1.148-1.395-1.313v-.427c.514,0,2.218.065,2.675.065.754,0,2.888-.162,4.519-.162,5.49,0,8.821,3.062,8.821,7.726,0,4.532-3.465,7.891-9.127,7.891-1.632,0-3.611-.13-4.367-.13-.459,0-2.044.065-2.56.065v-.427Zm3.928-.786c.56.097,1.592.162,2.41.162,4.607,0,7.01-2.772,7.01-6.645,0-4.015-2.531-6.84-6.843-6.84-.881,0-1.986.066-2.577.166v13.157Z"/><path d="m98.0731,21.1019c0,.794.502,1.225,1.43,1.421v.428c-.515,0-2.196-.065-2.677-.065-.412,0-2.058.065-2.574.065v-.428c.861-.163,1.367-.593,1.367-1.421v-11.828c0-.726-.392-1.186-1.365-1.351v-.428c.517,0,2.144.066,2.604.066.753,0,2.894-.124,3.737-.124,3.692,0,5.747,1.525,5.747,4.137,0,2.057-1.534,3.446-3.885,4.018,0,0,.53.312,1.066.938.654.764,2.453,3.339,3.181,4.219.725.882,1.661,1.89,2.653,1.936v.322c-.474.107-1.238.194-1.823.194-1.261,0-2.26-.44-3.231-1.619-.84-1.019-2.305-3.195-3.148-4.266-.537-.681-1.183-1.22-2.369-1.412-.234-.04-.454-.073-.713-.102v5.3Zm0-6.281c.489.063,1.211.097,1.927.097,2.889,0,3.795-1.662,3.795-3.129,0-2.088-1.388-3.374-3.92-3.374-.519,0-1.276.067-1.802.165v6.241Z"/><path d="m146.731,21.1019c0,.794.504,1.225,1.432,1.421v.428c-.516,0-2.194-.065-2.676-.065-.411,0-2.06.065-2.573.065v-.428c.859-.163,1.364-.593,1.364-1.421v-11.828c0-.726-.394-1.186-1.363-1.351v-.428c.515,0,2.142.066,2.601.066.754,0,2.898-.124,3.74-.124,3.691,0,5.746,1.525,5.746,4.137,0,2.057-1.533,3.446-3.884,4.018,0,0,.529.312,1.067.938.653.764,2.452,3.339,3.178,4.219.728.882,1.66,1.89,2.655,1.936v.322c-.476.107-1.24.194-1.824.194-1.26,0-2.261-.44-3.232-1.619-.838-1.019-2.303-3.195-3.146-4.266-.537-.681-1.183-1.22-2.37-1.412-.236-.04-.451-.073-.715-.102v5.3Zm0-6.281c.492.063,1.216.097,1.931.097,2.885,0,3.794-1.662,3.794-3.129,0-2.088-1.388-3.374-3.92-3.374-.516,0-1.279.067-1.805.165v6.241Z"/><path d="m.309.309h44.149v16.666c0,7.634-2.845,23.829-21.909,35.88,0,0-20.659-8.621-22.24-35.88V.309Z" fill="#a33338"/><path d="m.309.309h44.149v16.666c0,7.634-2.845,23.829-21.909,35.88,0,0-20.659-8.621-22.24-35.88V.309Z" fill="none" stroke="#000" stroke-width=".618"/><path d="m34.1331,22.4159s-.393,1.252-2.147-.036l-6.009-.143s-.787.25-.894-.573c0,0,.143-1.644.072-1.788,0,0,.035-.466-.753-.466,0,0-1.216.143-1.25-.929,0,0-.214-1.146,1.466-1.111,0,0,.537.252.572-.429,0,0-.072-4.651-.035-5.007,0,0,.143-.429-.68-.501,0,0-1.181.251-1.323-.536,0,0-.071-1.18.714-1.253,0,0,.966.073,1.146-.179,0,0,.214.143.178-.712l.036-1.47s.105-.392.716-.357c0,0,1.108.073,1.251-.035,0,0,.25-.322.322-.465,0,0,.574-.035.681.106,0,0,.858.573,4.112.359,0,0,.503,0,.61.143,0,0,.606.465.966-.035,0,0,.535-.108,2.144-.073,0,0,1.754.465,2.971-.535l.392.07s.5.822.859.573c0,0,1.074-.108,1.253.107,0,0,.356.535.178,1.932,0,0-.216.607.824.607,0,0,1.18-.215,1.036.894,0,0,.322,1.253-1.646,1.074,0,0-.249.359-.214.608,0,0-.035,4.078-.072,4.543,0,0-.035.645.823.609,0,0,1.145-.073,1.182.964,0,0,.141,1.361-1.505,1.11,0,0-.5.071-.572.394l-.072,1.788s.038.894-.964.68c-.143,0-5.58.108-6.045-.035,0,0-.253-.037-.323.107" fill="#fff"/><path d="m22.5184,28.4807s.248-.105.319-.284c0,0,.751-.073.86-.18l2.362.18s2.323.179,3.325-.539c0,0,.36,0,.609.108,0,0,.501.107.643.322l1.361-.037s.785.252.714.754v.641s-.143,1.289.214,1.361h1.039s.858.394.751.895c0,0,.035.714-.714.856,0,0-.753.216-1.003.181,0,0-.251.322-.287.714l-.107,4.687s-.072.501.679.429c0,0,1.108-.106,1.432.503,0,0,.287,1.036-.287,1.216l-.427.214-.932.143s-.392.035-.427.714v1.254s.035.857-.645.857l-1.003.071s-.25.215-.749.072c0,0-6.08.108-6.298.036l-.717.145s-.785.713-1.429.176l-.502-.393s-.356.072-.499.036c-.143-.036-6.725.073-6.725.073,0,0-1.395.144-1.503-.322,0,0-.178-1.826-.106-2.041,0,0,0-.536-.324-.571,0,0-1.394-.072-1.43-.216,0,0-.752-.536-.536-1.071,0,0,.25-.718,1.001-.787,0,0,1.145.179,1.145-.144,0,0,.072-.215.072-.572,0,0,.072-4.257.036-4.544,0,0,.107-.535-.358-.535,0,0-.501.141-.823-.073,0,0-.859.036-1.037-.643,0,0-.144-.429.07-.79,0,0,.393-.787,1.539-.535,0,0,.645.178.716-.285l-.036-1.718s-.143-.463.752-.715c0,0,1.145.322,1.5-.251,0,0,.395-.786.716-.25,0,0,.681.645,2.54.574,0,0,3.22-.251,3.29-.109,0,0,.788.109,1.002.358l.217.035Z" fill="#fff"/><path d="m12.7446,22.5007s-.395,1.254-2.148-.035l-6.009-.144s-.787.252-.895-.571c0,0,.144-1.644.071-1.79,0,0,.037-.465-.75-.465,0,0-1.217.145-1.251-.929,0,0-.217-1.145,1.464-1.109,0,0,.537.252.574-.429,0,0-.073-4.65-.037-5.009,0,0,.146-.427-.678-.498,0,0-1.182.25-1.323-.539,0,0-.074-1.18.713-1.252,0,0,.966.072,1.146-.177,0,0,.215.142.179-.717l.036-1.466s.107-.394.714-.359c0,0,1.11.071,1.254-.035,0,0,.249-.321.319-.465,0,0,.574-.035.683.109,0,0,.856.571,4.114.356,0,0,.5,0,.606.144,0,0,.608.465.967-.038,0,0,.535-.106,2.147-.071,0,0,1.75.465,2.967-.535l.395.073s.5.821.858.571c0,0,1.072-.109,1.252.107,0,0,.358.537.179,1.932,0,0-.216.608.822.608,0,0,1.181-.214,1.038.893,0,0,.324,1.254-1.645,1.074,0,0-.252.358-.215.608,0,0-.037,4.078-.072,4.542,0,0-.035.645.823.61,0,0,1.146-.073,1.18.965,0,0,.142,1.361-1.502,1.11,0,0-.501.071-.572.391l-.073,1.79s.037.895-.966.68c-.143,0-5.578.106-6.043-.034,0,0-.251-.036-.322.104" fill="#fff"/><path d="m34.1331,22.4159s-.393,1.252-2.147-.036l-6.009-.143s-.787.25-.894-.573c0,0,.143-1.644.072-1.788,0,0,.035-.466-.753-.466,0,0-1.216.143-1.25-.929,0,0-.214-1.146,1.466-1.111,0,0,.537.252.572-.429,0,0-.072-4.651-.035-5.007,0,0,.143-.429-.68-.501,0,0-1.181.251-1.323-.536,0,0-.071-1.18.714-1.253,0,0,.966.073,1.146-.179,0,0,.214.143.178-.712l.036-1.47s.105-.392.716-.357c0,0,1.108.073,1.251-.035,0,0,.25-.322.322-.465,0,0,.574-.035.681.106,0,0,.858.573,4.112.359,0,0,.503,0,.61.143,0,0,.606.465.966-.035,0,0,.535-.108,2.144-.073,0,0,1.754.465,2.971-.535l.392.07s.5.822.859.573c0,0,1.074-.108,1.253.107,0,0,.356.535.178,1.932,0,0-.216.607.824.607,0,0,1.18-.215,1.036.894,0,0,.322,1.253-1.646,1.074,0,0-.249.359-.214.608,0,0-.035,4.078-.072,4.543,0,0-.035.645.823.609,0,0,1.145-.073,1.182.964,0,0,.141,1.361-1.505,1.11,0,0-.5.071-.572.394l-.072,1.788s.038.894-.964.68c-.143,0-5.58.108-6.045-.035,0,0-.253-.037-.323.107"/><path d="m34.1331,22.4159s-.393,1.252-2.147-.036l-6.009-.143s-.787.25-.894-.573c0,0,.143-1.644.072-1.788,0,0,.035-.466-.753-.466,0,0-1.216.143-1.25-.929,0,0-.214-1.146,1.466-1.111,0,0,.537.252.572-.429,0,0-.072-4.651-.035-5.007,0,0,.143-.429-.68-.501,0,0-1.181.251-1.323-.536,0,0-.071-1.18.714-1.253,0,0,.966.073,1.146-.179,0,0,.214.143.178-.712l.036-1.47s.105-.392.716-.357c0,0,1.108.073,1.251-.035,0,0,.25-.322.322-.465,0,0,.574-.035.681.106,0,0,.858.573,4.112.359,0,0,.503,0,.61.143,0,0,.606.465.966-.035,0,0,.535-.108,2.144-.073,0,0,1.754.465,2.971-.535l.392.07s.5.822.859.573c0,0,1.074-.108,1.253.107,0,0,.356.535.178,1.932,0,0-.216.607.824.607,0,0,1.18-.215,1.036.894,0,0,.322,1.253-1.646,1.074,0,0-.249.359-.214.608,0,0-.035,4.078-.072,4.543,0,0-.035.645.823.609,0,0,1.145-.073,1.182.964,0,0,.141,1.361-1.505,1.11,0,0-.5.071-.572.394l-.072,1.788s.038.894-.964.68c-.143,0-5.58.108-6.045-.035,0,0-.253-.037-.323.107Z" fill="none" stroke="#000" stroke-width=".309"/><path d="m27.3717,7.6757s.071.717.071.896c0,.181-.107,10.338-.107,10.338,0,0,.107.786-.572,1.18,0,0-.179.07-.213-.43l.069-10.73s.072-1.325.752-1.254" fill="#fff"/><path d="m27.3717,7.6757s.071.717.071.896c0,.181-.107,10.338-.107,10.338,0,0,.107.786-.572,1.18,0,0-.179.07-.213-.43l.069-10.73s.072-1.325.752-1.254Z" fill="none" stroke="#000" stroke-width=".155"/><path d="m26.1932,20.1982s.069-10.088.035-10.267c-.035-.18.034.143.034.143,0,0-.106-1.753.358-2.47,0,0-.144-.605-.967.145l-.033,1.466s0,.824-.752.787c0,0-.859-.037-1.253.356,0,0-.215.788.609.646,0,0,1.288,0,1.359.535l-.071,5.402s.286.898-.715.898c0,0-1.219-.076-1.182.676,0,0,.251.644,1.289.43,0,0,.749.143.716.859v1.358s-.073.539.642.574h5.582s.285.036.285-.323c0,0-.036-.285-.464-.285l-4.65-.072s-.753.25-.822-.858" fill="#fff"/><path d="m27.1585,20.2679s-.143.501.393.395h3.685l1.001.215s1.036-.25,0-.822c0,0-3.291.033-3.578-.036,0,0-.679-.179-.824-.216,0,0-.356-.144-.677.464" fill="#fff"/><path d="m27.1585,20.2679s-.143.501.393.395h3.685l1.001.215s1.036-.25,0-.822c0,0-3.291.033-3.578-.036,0,0-.679-.179-.824-.216,0,0-.356-.144-.677.464Z" fill="none" stroke="#000" stroke-width=".155"/><path d="m33.2732,20.7688s-.678,0-.642.896c0,0,.071.679.787.679,0,0,.641-.107.571-.822,0,0-.394-.894-.716-.753" fill="#fff"/><path d="m33.7756,20.4122s.322-.356.536-.356c0,0,3.579.32,4.184-.109,0,0,.538-.107.682,0,0,0,.536.429.536.681,0,0-.036.321-.68.141,0,0-4.042.037-4.256.037,0,0-1.111.25-1.002-.394" fill="#fff"/><path d="m33.7756,20.4122s.322-.356.536-.356c0,0,3.579.32,4.184-.109,0,0,.538-.107.682,0,0,0,.536.429.536.681,0,0-.036.321-.68.141,0,0-4.042.037-4.256.037,0,0-1.111.25-1.002-.394Z" fill="none" stroke="#000" stroke-width=".155"/><path d="m34.3485,21.4849s0-.286.5-.286l5.006-.036s.467.25.467-.608c0,0,.183-3.898.201-8.194.005-1.275.063-2.617.016-3.861,0,0-.11-.535-.254-.645,0,0,0-.572.609-.356,0,0,.537.036.394.859l.036,1.25s-.109.539.858.394c0,0,.964.145,1.002.501,0,0,.286.715-.858.644h-.822s-.36.213-.252.644l-.108,5.187s-.071.895.788.861c0,0,.894-.038,1.072.248,0,0,.611.895-.715.823,0,0-.823-.035-1.001.107,0,0-.144.179-.251,1.861,0,0,.073,1.001-.678.894,0,0-4.974.072-5.437-.036,0,0-.502.143-.573-.251" fill="#fff"/><path d="m27.9091,7.3519l-.107,11.483s-.037.537.857.644c0,0,1.038.107,1.289,0,0,0,.68-.037,2.432.038,0,0,.431.429.466-.11,0,0,.285-9.3.143-11.233,0,0-.036-.822-.645-.858,0,0-2.718.216-2.969,0l-1.073-.285s-.431.035-.393.321" fill="#fff"/><path d="m33.5613,7.9249s-.109,5.401-.073,5.58l-.07,4.542-.145,1.575s.215.324.394.11c0,0,1.146-.29,1.86-.18,0,0,2.291.214,2.754-.145,0,0,.36.179.465-.393,0,0,.142-10.015.074-10.194,0,0,.141-1.433.068-1.576,0,0-.033-.319-.642-.036,0,0,.071.287-3.325.179,0,0-1.289-.035-1.36.538" fill="#fff"/><path d="m39.2486,7.784l-.036,11.304s.286,1.001.751.896c0,0,.069-.215.108-.574l.142-10.768s-.359-1.716-.965-.858" fill="#fff"/><path d="m39.2486,7.784l-.036,11.304s.286,1.001.751.896c0,0,.069-.215.108-.574l.142-10.768s-.359-1.716-.965-.858Z" fill="none" stroke="#000" stroke-width=".155"/><path d="m34.8581,11.1678c-.107-.286.609-.321.609-.321l.356.072c.251-.037.502.07.502.07.251.393-.18.608-.18.608l-.142.465c-.036.394,0,3.793,0,3.793.071.178.357.499.357.499,0,.322-.393.252-.393.252l-1.04.037c-.319-.037-.213-.395-.213-.395.359-.18.464-.824.464-.824v-3.54l-.32-.716Z"/><path d="m30.0285,14.4932l-.073,1.111.323.535c.215.287-.144.503-.144.503l-1.144-.108c-.212-.108,0-.466,0-.466.288-.178.322-.645.322-.645l-.034-2.074.034-1.502c0-.179-.286-.501-.286-.501-.248-.035-.178-.358-.178-.358.071-.178.679-.069.679-.069h1.502c1.431.463,1.215,1.499,1.215,1.499.109,1.04-1.001,1.47-1.001,1.47l-.071.571,1.038,1.644c.179.144.143.287.143.287-.143.394-.714,0-.714,0l-1.288-2.004c-.109-.143-.323.107-.323.107m.036-2.825c.034.788.034,1.861.034,1.861.684.536,1.074-.215,1.074-.215.893-.858,0-1.646-.143-1.861-.144-.215-.86-.036-.86-.036l-.105.251Z"/><path d="m22.5184,28.4807s.248-.105.319-.284c0,0,.751-.073.86-.18l2.362.18s2.323.179,3.325-.539c0,0,.36,0,.609.108,0,0,.501.107.643.322l1.361-.037s.785.252.714.754v.641s-.143,1.289.214,1.361h1.039s.858.394.751.895c0,0,.035.714-.714.856,0,0-.753.216-1.003.181,0,0-.251.322-.287.714l-.107,4.687s-.072.501.679.429c0,0,1.108-.106,1.432.503,0,0,.287,1.036-.287,1.216l-.427.214-.932.143s-.392.035-.427.714v1.254s.035.857-.645.857l-1.003.071s-.25.215-.749.072c0,0-6.08.108-6.298.036l-.717.145s-.785.713-1.429.176l-.502-.393s-.356.072-.499.036c-.143-.036-6.725.073-6.725.073,0,0-1.395.144-1.503-.322,0,0-.178-1.826-.106-2.041,0,0,0-.536-.324-.571,0,0-1.394-.072-1.43-.216,0,0-.752-.536-.536-1.071,0,0,.25-.718,1.001-.787,0,0,1.145.179,1.145-.144,0,0,.072-.215.072-.572,0,0,.072-4.257.036-4.544,0,0,.107-.535-.358-.535,0,0-.501.141-.823-.073,0,0-.859.036-1.037-.643,0,0-.144-.429.07-.79,0,0,.393-.787,1.539-.535,0,0,.645.178.716-.285l-.036-1.718s-.143-.463.752-.715c0,0,1.145.322,1.5-.251,0,0,.395-.786.716-.25,0,0,.681.645,2.54.574,0,0,3.22-.251,3.29-.109,0,0,.788.109,1.002.358l.217.035Z"/><path d="m22.5184,28.4807s.248-.105.319-.284c0,0,.751-.073.86-.18l2.362.18s2.323.179,3.325-.539c0,0,.36,0,.609.108,0,0,.501.107.643.322l1.361-.037s.785.252.714.754v.641s-.143,1.289.214,1.361h1.039s.858.394.751.895c0,0,.035.714-.714.856,0,0-.753.216-1.003.181,0,0-.251.322-.287.714l-.107,4.687s-.072.501.679.429c0,0,1.108-.106,1.432.503,0,0,.287,1.036-.287,1.216l-.427.214-.932.143s-.392.035-.427.714v1.254s.035.857-.645.857l-1.003.071s-.25.215-.749.072c0,0-6.08.108-6.298.036l-.717.145s-.785.713-1.429.176l-.502-.393s-.356.072-.499.036c-.143-.036-6.725.073-6.725.073,0,0-1.395.144-1.503-.322,0,0-.178-1.826-.106-2.041,0,0,0-.536-.324-.571,0,0-1.394-.072-1.43-.216,0,0-.752-.536-.536-1.071,0,0,.25-.718,1.001-.787,0,0,1.145.179,1.145-.144,0,0,.072-.215.072-.572,0,0,.072-4.257.036-4.544,0,0,.107-.535-.358-.535,0,0-.501.141-.823-.073,0,0-.859.036-1.037-.643,0,0-.144-.429.07-.79,0,0,.393-.787,1.539-.535,0,0,.645.178.716-.285l-.036-1.718s-.143-.463.752-.715c0,0,1.145.322,1.5-.251,0,0,.395-.786.716-.25,0,0,.681.645,2.54.574,0,0,3.22-.251,3.29-.109,0,0,.788.109,1.002.358l.217.035Z" fill="none" stroke="#000" stroke-width=".309"/><path d="m23.4465,42.5396s.431-.215.718-.142c.286.07,4.471-.036,4.471-.036,0,0,1.824.141,2.109-.108l.428-.144s.18-.213.18-.499c0-.288.036-1.254.036-1.254l.108-.357s-.035-.356,0-9.91c0,0,.143-.749-.324-1.215,0,0,0-.285.144-.25.145.038.072.038.072.038,0,0,.644-.182.75.07,0,0,.289.856.035,1.357,0,0-.07,1.041.469,1.041,0,0,.214.214.64.105,0,0,.933.109.933.392,0,0,0,.646-.645.539l-.859.071s-.573.108-.501.787c.072.68-.037,5.544-.037,5.544,0,0,0,.575.896.539,0,0,1.11-.036,1.11.284,0,0,.285.716-.501.752,0,0-1.505-.036-1.396.392,0,0-.109,1.002-.179,1.181,0,0,.145.823-.036.967,0,0-.107.464-1.073.392,0,0-6.152-.034-7.117.036,0,0-.575-.07-.431-.572" fill="#fff"/><path d="m22.3393,41.8624s.608.106.608.677c0,.572.035.895-.325.966-.356.071-.749-.036-.855-.499-.111-.467.071-1.038.572-1.144" fill="#fff"/><path d="m23.0542,41.5732s.643-.43.893-.356c0,0,3.256.214,4.257.037,1.003-.181.395-.037.395-.037,0,0,.858,0,1.108-.322,0,0,.25-.071.393.178l.536.575s.038.356-.572.32c0,0-5.831,0-6.008.036,0,0-1.109.178-1.002-.431" fill="#fff"/><path d="m23.0542,41.5732s.643-.43.893-.356c0,0,3.256.214,4.257.037,1.003-.181.395-.037.395-.037,0,0,.858,0,1.108-.322,0,0,.25-.071.393.178l.536.575s.038.356-.572.32c0,0-5.831,0-6.008.036,0,0-1.109.178-1.002-.431Z" fill="none" stroke="#000" stroke-width=".155"/><path d="m14.5766,28.875s.249,0,.214.429l-.073,10.804s.108.716-.5,1.18c0,0-.322.393-.322-.214l.144-11.017s.036-.825.537-1.182" fill="#fff"/><path d="m14.5766,28.875s.249,0,.214.429l-.073,10.804s.108.716-.5,1.18c0,0-.322.393-.322-.214l.144-11.017s.036-.825.537-1.182Z" fill="none" stroke="#000" stroke-width=".155"/><path d="m14.0039,28.9475s-.431.786-.394.966l-.037,2.396s-.036,1.538,0,1.716c.037.181-.036,4.688-.036,4.688,0,0-.034.857,0,1.145v1.93s-.07.858.574.643c0,0,6.296-.142,6.69-.034,0,0,.571.105.358.394,0,0,0,.25-.395.178,0,0-2.969.284-5.653.178,0,0-1.788.106-1.896-.106,0,0-.284-.036-.284-1.073,0,0,0-.966-.071-1.145,0,0,.071-.503-.824-.608,0,0-1.253.214-1.288-.537,0,0,.179-.535,1.395-.465,0,0,.896.143.717-.573l.105-5.293s.109-.932-.498-.968c0,0-.573-.034-.753.036,0,0-1.038,0-.966-.608,0,0,.358-.644,1.395-.501,0,0,.788.144.822-.75,0,0-.034-1.824.396-1.894,0,0,.893.033.643.285" fill="#fff"/><path d="m15.0758,40.7868s.502.536,1.325.501l4.861.071s.54.037.505.322c0,0-.074.429-.716.287l-5.867-.071-.644.036s-.428-.07.251-.896l.285-.25Z" fill="#fff"/><path d="m15.0758,40.7868s.502.536,1.325.501l4.861.071s.54.037.505.322c0,0-.074.429-.716.287l-5.867-.071-.644.036s-.428-.07.251-.896l.285-.25Z" fill="none" stroke="#000" stroke-width=".155"/><path d="m30.1006,40.3204s.429.823.644.933c0,0,.394.463.286-.359l.074-10.305s-.11-.356,0-.928l-.431-.786s-.467-.36-.467.214l-.07,10.983-.036.248Z" fill="#fff"/><path d="m30.1006,40.3204s.429.823.644.933c0,0,.394.463.286-.359l.074-10.305s-.11-.356,0-.928l-.431-.786s-.467-.36-.467.214l-.07,10.983-.036.248Z" fill="none" stroke="#000" stroke-width=".155"/><path d="m22.1604,35.4181s.036.858-.073,1.681c-.059.449.144,2.541-.036,3.615,0,0-.035.356-.789.036,0,0-4.577.108-4.719-.036,0,0-1.253.036-1.36-.61,0,0,.179-4.899.072-5.083,0,0-.072-2.681,0-2.929,0,0,.107-2.468.035-2.755,0,0,.037-.573-.071-.86,0,0,0-.356.609-.143,0,0,.212.395,1.393.216,0,0,.86.143,1.683.036,0,0,1.824-.144,2.29,0,0,0,.716-.144.929.645l-.036,2.217.214.716.252-.18.105-.536.036-2.361s.143-.431.715-.501c0,0,.896-.109,1.041-.036.141.071,2.071.179,2.611.071.536-.108.642.358,2.253-.465,0,0,.43.036.43.321,0,0-.147,3.042,0,3.615,0,0,0,5.579-.11,5.973l.073,1.79s.071.785-1.18.859c0,0,.787.108-4.153-.037,0,0-.786-.037-1.642.358,0,0-.179-.038-.179-.501,0,0,.141-1.681,0-3.328l-.072-1.823-.321.035Z" fill="#fff"/><path d="m18.9388,32.8824s.109,2.646,0,3.004l-.035.572s.144.394.359.538c0,0,.178.499-.252.464,0,0-.892-.073-1.108-.037,0,0-.502,0,0-.642,0,0,.178-.251.143-.895,0,0,0-3.004.073-3.184,0,0,.07-.393-.182-.501l-.429.036-.535.501s-.108.537-.359-.036v-.287l.323-.858.214-.036s.322.216.608.287h1.682l.608-.287s.249.036.181.357c0,0,.105.824-.36.931,0,0-.287-.107-.429-.5,0,0-.466-.25-.502.573"/><path d="m26.8441,31.9171s-1.358-.109-1.392,1.358c0,0-.146,1.003,1.357,1.647,0,0,1.111.536,1.039,1.215,0,0-.145,1.217-1.326.609,0,0-.571-.287-.534-.609,0,0-.181-.393-.394-.321,0,0-.252.07-.142,1.251,0,0,0,.464.536,0l.285.073s.967.787,1.787-.181c0,0,.897-.822.251-1.823,0,0-.463-.716-1.286-1.073,0,0-.789-.358-.965-.967,0,0,.25-1.074,1.214-.502,0,0,.359.43.574.502,0,0,.285,0,.212-.645l-.069-.534s-.071-.396-.573,0c0,0-.466.177-.574,0"/><path d="m22.4811,31.164c.251.18.286.538.286.538.716,1.895,1.324,4.649,1.324,4.649.179.358.5.645.5.645.608.214,0,.391,0,.391-.249.109-1.071-.033-1.071-.033-.431-.072-.252-.214-.252-.214.178-.181.035-.897.035-.897-.035-.284-.356-.75-.356-.75-.144-.072-.394.251-.394.251,0,0-.393.142-.43,0-.036-.145-.284-.286-.284-.286-.431,0-.61,1.072-.61,1.072.25.893,0,.752,0,.752-.214.287-.894.072-.894.072-.322-.072-.106-.323-.106-.323.392-.072.5-.501.5-.501.178-.251,1.322-4.902,1.322-4.902.109-.215.18-.644.43-.464m-.571,2.359c-.037.182-.288,1.181-.288,1.181l.217.359s.571.036.784.036c.214,0,.253-.177.253-.357,0-.177-.395-1.251-.395-1.251l-.18-.215-.391.247Z"/><path d="m12.7446,22.5007s-.395,1.254-2.148-.035l-6.009-.144s-.787.252-.895-.571c0,0,.144-1.644.071-1.79,0,0,.037-.465-.75-.465,0,0-1.217.145-1.251-.929,0,0-.217-1.145,1.464-1.109,0,0,.537.252.574-.429,0,0-.073-4.65-.037-5.009,0,0,.146-.427-.678-.498,0,0-1.182.25-1.323-.539,0,0-.074-1.18.713-1.252,0,0,.966.072,1.146-.177,0,0,.215.142.179-.717l.036-1.466s.107-.394.714-.359c0,0,1.11.071,1.254-.035,0,0,.249-.321.319-.465,0,0,.574-.035.683.109,0,0,.856.571,4.114.356,0,0,.5,0,.606.144,0,0,.608.465.967-.038,0,0,.535-.106,2.147-.071,0,0,1.75.465,2.967-.535l.395.073s.5.821.858.571c0,0,1.072-.109,1.252.107,0,0,.358.537.179,1.932,0,0-.216.608.822.608,0,0,1.181-.214,1.038.893,0,0,.324,1.254-1.645,1.074,0,0-.252.358-.215.608,0,0-.037,4.078-.072,4.542,0,0-.035.645.823.61,0,0,1.146-.073,1.18.965,0,0,.142,1.361-1.502,1.11,0,0-.501.071-.572.391l-.073,1.79s.037.895-.966.68c-.143,0-5.578.106-6.043-.034,0,0-.251-.036-.322.104"/><path d="m12.7446,22.5007s-.395,1.254-2.148-.035l-6.009-.144s-.787.252-.895-.571c0,0,.144-1.644.071-1.79,0,0,.037-.465-.75-.465,0,0-1.217.145-1.251-.929,0,0-.217-1.145,1.464-1.109,0,0,.537.252.574-.429,0,0-.073-4.65-.037-5.009,0,0,.146-.427-.678-.498,0,0-1.182.25-1.323-.539,0,0-.074-1.18.713-1.252,0,0,.966.072,1.146-.177,0,0,.215.142.179-.717l.036-1.466s.107-.394.714-.359c0,0,1.11.071,1.254-.035,0,0,.249-.321.319-.465,0,0,.574-.035.683.109,0,0,.856.571,4.114.356,0,0,.5,0,.606.144,0,0,.608.465.967-.038,0,0,.535-.106,2.147-.071,0,0,1.75.465,2.967-.535l.395.073s.5.821.858.571c0,0,1.072-.109,1.252.107,0,0,.358.537.179,1.932,0,0-.216.608.822.608,0,0,1.181-.214,1.038.893,0,0,.324,1.254-1.645,1.074,0,0-.252.358-.215.608,0,0-.037,4.078-.072,4.542,0,0-.035.645.823.61,0,0,1.146-.073,1.18.965,0,0,.142,1.361-1.502,1.11,0,0-.501.071-.572.391l-.073,1.79s.037.895-.966.68c-.143,0-5.578.106-6.043-.034,0,0-.251-.036-.322.104Z" fill="none" stroke="#000" stroke-width=".309"/><path d="m5.9826,7.7643s.071.714.071.894c0,.178-.108,10.338-.108,10.338,0,0,.108.788-.571,1.181,0,0-.179.073-.215-.43l.071-10.73s.071-1.324.752-1.253" fill="#fff"/><path d="m5.9826,7.7643s.071.714.071.894c0,.178-.108,10.338-.108,10.338,0,0,.108.788-.571,1.181,0,0-.179.073-.215-.43l.071-10.73s.071-1.324.752-1.253Z" fill="none" stroke="#000" stroke-width=".155"/><path d="m4.8022,20.2847s.071-10.088.037-10.268c-.037-.178.034.145.034.145,0,0-.106-1.753.358-2.468,0,0-.144-.611-.965.141l-.036,1.468s0,.822-.752.787c0,0-.859-.037-1.253.356,0,0-.214.788.609.645,0,0,1.289,0,1.359.535l-.07,5.403s.285.895-.717.895c0,0-1.216-.072-1.181.679,0,0,.25.646,1.289.431,0,0,.752.141.716.857v1.361s-.073.536.643.571h5.581s.286.036.286-.324c0,0-.037-.282-.465-.282l-4.649-.074s-.753.252-.824-.858" fill="#fff"/><path d="m5.7677,20.3547s-.142.503.393.393h3.686l1.002.214s1.037-.249,0-.822c0,0-3.292.037-3.579-.033,0,0-.678-.18-.822-.216,0,0-.36-.143-.68.464" fill="#fff"/><path d="m5.7677,20.3547s-.142.503.393.393h3.686l1.002.214s1.037-.249,0-.822c0,0-3.292.037-3.579-.033,0,0-.678-.18-.822-.216,0,0-.36-.143-.68.464Z" fill="none" stroke="#000" stroke-width=".155"/><path d="m11.8859,20.8579s-.681,0-.645.893c0,0,.07.679.786.679,0,0,.645-.108.574-.822,0,0-.394-.895-.715-.75" fill="#fff"/><path d="m12.3866,20.499s.32-.359.536-.359c0,0,3.576.324,4.186-.105,0,0,.538-.108.68,0,0,0,.536.429.536.677,0,0-.036.325-.678.146,0,0-4.044.035-4.258.035,0,0-1.111.25-1.002-.394" fill="#fff"/><path d="m12.3866,20.499s.32-.359.536-.359c0,0,3.576.324,4.186-.105,0,0,.538-.108.68,0,0,0,.536.429.536.677,0,0-.036.325-.678.146,0,0-4.044.035-4.258.035,0,0-1.111.25-1.002-.394Z" fill="none" stroke="#000" stroke-width=".155"/><path d="m12.9584,21.572s0-.285.498-.285l5.012-.036s.462.248.462-.608c0,0,.184-3.9.202-8.195.004-1.274.062-2.617.014-3.861,0,0-.107-.536-.251-.645,0,0,0-.571.61-.356,0,0,.534.036.391.858l.036,1.252s-.106.535.859.394c0,0,.966.141,1.001.5,0,0,.287.717-.858.644h-.822s-.358.215-.25.645l-.108,5.186s-.072.893.787.859c0,0,.893-.035,1.073.25,0,0,.608.894-.715.823,0,0-.824-.035-1.003.107,0,0-.142.18-.249,1.858,0,0,.07,1.004-.681.897,0,0-4.972.071-5.435-.037,0,0-.503.144-.573-.25" fill="#fff"/><path d="m6.5172,7.4405l-.105,11.481s-.036.536.857.645c0,0,1.04.107,1.289,0,0,0,.679-.036,2.431.036,0,0,.431.428.466-.108,0,0,.287-9.3.144-11.233,0,0-.037-.821-.645-.857,0,0-2.72.214-2.968,0l-1.075-.287s-.43.035-.394.323" fill="#fff"/><path d="m17.8596,7.8703l-.036,11.305s.284,1.002.751.896c0,0,.072-.215.107-.575l.144-10.767s-.357-1.717-.966-.859" fill="#fff"/><path d="m17.8596,7.8703l-.036,11.305s.284,1.002.751.896c0,0,.072-.215.107-.575l.144-10.767s-.357-1.717-.966-.859Z" fill="none" stroke="#000" stroke-width=".155"/><path d="m12.1722,7.9654s-.108,5.402-.073,5.582l-.068,4.544-.145,1.572s.213.322.393.108c0,0,1.145-.286,1.86-.179,0,0,2.291.216,2.754-.144,0,0,.359.18.467-.393,0,0,.14-10.016.07-10.194,0,0,.145-1.431.07-1.574,0,0-.034-.324-.642-.037,0,0,.072.288-3.326.18,0,0-1.289-.035-1.36.535" fill="#fff"/><path d="m11.0684,11.2741l-.324.683s-.784,3.466-1.213,4.182c0,0-.072.718-.681.143,0,0-1.394-4.399-1.468-4.541l-.463-.324s-.285-.392.214-.428l1.325.036s.428.357-.143.752c0,0,.071.571.822,2.754,0,0,.214.821.465.213l.715-2.54-.215-.751s-.215-.357.108-.394c0,0,.751-.07.858.215"/><path d="m13.1441,11.8471l-.037,3.793-.106.285s-.358.465-.109.501c0,0-.319.217,2.291.25,0,0,1.002.181.75-1.109,0,0-.107-.465-.464.216,0,0-.108.57-1.396.391,0,0-.284-.249-.284-.534v-1.574s-.038-.394.571-.357c0,0,.68.428.788.248,0,0,.248-.572,0-.93,0,0-.324-.034-.359.107,0,0-.216.43-.823.18,0,0-.286-.573-.107-1.038,0,0-.07-.894.538-.822,0,0,.714.143.786.358,0,0,.178.429.358-.071l-.18-.609s-.106-.25-.285-.178c0,0-1.217.178-1.36.035l-.967.107s-.142.358.287.535c0,0,.108.074.108.216"/></g></svg>