<?xml version="1.0" encoding="UTF-8"?><svg id="b" xmlns="http://www.w3.org/2000/svg" viewBox="0 0 272.9331 88.343"><title>Mignone Center for Career Success</title><path d="m69.1903,79.5016c-14.5986,5.4047-31.0903-1.5301-37.3313-15.9851-1.4588-3.3774-2.2232-6.8779-2.3793-10.351l1.6188-.1324-1.6293-1.689-1.6292-1.6885-1.3317,1.9307-1.3322,1.9312,1.6429-.1338c.1789,3.7535,1.0174,7.5378,2.5926,11.1888,6.8314,15.8209,24.9243,23.3778,40.8839,17.3593l-1.1051-2.4302h0Z" fill="#52845c"/><path d="m24.6862,65.2898c-3.4563-8.0041-3.5788-16.618-.9951-24.2947l1.6027.4984-.879-2.1726-.8809-2.1768-1.957,1.2939-1.9582,1.2917,1.5288.4759c-2.7656,8.2641-2.6251,17.5311,1.0925,26.1412,5.5445,12.843,17.6036,20.9005,30.6534,21.9962l-.0588-2.6744c-11.9956-1.108-23.0459-8.5605-28.1483-20.3788h0Z" fill="#4e84c4"/><path d="m24.6473,22.8604l-2.3218.3354,1.1912,1.0916c-10.4433,11.5442-13.8468,28.5718-7.2833,43.772,3.8395,8.8944,10.4787,15.7296,18.4409,19.9415l1.1261-2.4204c-7.3899-3.9422-13.5491-10.3073-17.1205-18.5776-6.1326-14.2049-2.9543-30.1213,6.8012-40.9155l1.2252,1.122.1321-2.3412.1298-2.3436-2.3209.3359h0Z" fill="#c4961a"/><path d="m37.5675,8.6037l-2.2112-.7855.512,1.4284c-.6923.2592-1.382.5345-2.07.8309C10.7846,20.014.1451,46.8215,10.0808,69.8336c1.8226,4.2217,4.2163,8.0202,7.043,11.3565l1.9467-1.8302c-2.623-3.1156-4.8467-6.6548-6.5422-10.5819-9.3539-21.6653.6612-46.9003,22.3255-56.253.6368-.2741,1.274-.5293,1.9139-.7686l.5948,1.6548,1.2077-2.0108,1.2077-2.0111-2.2105-.7856h0Z" fill="#00aac0"/><path d="m65.588,2.6128l-1.2953-1.9553-.4339,1.4006c-10.7858-3.1912-22.7009-2.7841-33.8128,2.014C6.9317,14.0514-4.781,39.5715,1.8333,63.176l2.5469-.7937C-1.8339,40.0645,9.2488,15.9541,31.1024,6.5189c10.5067-4.5362,21.7725-4.9319,31.9729-1.9211l-.5364,1.7377,2.1738-.8839,2.1738-.8833-1.2987-1.9556h0Z" fill="#a51c30"/><path d="m47.9482,39.86c.6792-.1641,1.1943-.7495,1.2412-1.1948l1.0073-11.2427c.0703-.7261-.2578-1.2881-.9136-1.4756v-.5854c.5854,0,1.124.0469,1.499.0469.3511,0,.8901-.0469,1.4053-.0469l5.5513,11.4302,4.895-11.4302c.5386,0,1.0073.0469,1.3584.0469.375,0,.9136-.0469,1.499-.0469v.5854c-.6323.1875-.937.7495-.8901,1.499l.7964,11.2427c.0234.4922.3516.9839,1.0073,1.1714v.5854c-.3984,0-1.874-.0469-2.272-.0469-.3516,0-1.7803.0469-2.2017.0469v-.5854c.6558-.1641,1.0308-.7261,1.0073-1.1479l-.6562-8.8301-4.4971,10.5166h-1.0303l-5.27-10.8213-.8198,9.1348c-.0469.3984.2578.937,1.2412,1.1479v.5854c-.3979,0-1.6626-.0469-2.061-.0469-.3511,0-1.4756.0469-1.897.0469v-.5854Z" fill="#221f1f"/><path d="m70.5073,39.86c.8901-.1875,1.2178-.5854,1.2178-1.1714v-11.5703c0-.5859-.3276-.9839-1.2178-1.1714v-.5854c.3984,0,2.1313.0469,2.5298.0469.3511,0,2.0142-.0469,2.4355-.0469v.5854c-.8896.2344-1.2412.5854-1.2412,1.1714v11.5703c0,.5859.3516.937,1.2412,1.1714v.5854c-.3979,0-2.0845-.0469-2.4355-.0469-.3984,0-2.1079.0469-2.5298.0469v-.5854Z" fill="#221f1f"/><path d="m90.8389,35.2926c0-.4219-.1172-.9136-1.335-1.1245v-.6089c.5151,0,2.061.0469,2.4595.0469.3511,0,1.499-.0469,2.0376-.0469v.5854c-.4917.1406-.6558.6328-.6558,1.2183v4.5205s-.7964.0703-1.9438.3979c-.6797.1875-2.1553.3984-3.6543.3984-4.8716,0-8.4785-2.811-8.4785-7.8232,0-4.7314,3.5366-7.7295,8.2915-7.7295,1.3584,0,2.2251.3281,3.4663.5859.6558.1401.9604.1636,1.2178.1636l.1406,2.6938h-.5854c-.7964-1.4053-2.436-2.1782-4.1455-2.1782-3.4199,0-5.6919,2.6699-5.6919,6.1831,0,3.9116,2.1079,6.8394,6.043,6.8394,1.0776,0,2.3657-.5854,2.834-.8433v-3.2788Z" fill="#221f1f"/><path d="m97.9394,39.8834c.8901-.2578,1.2417-.5859,1.2417-1.1714v-11.2661c0-.7729-.2812-1.3115-.9136-1.499v-.5854c.5854,0,.937.0469,1.3115.0469.3516,0,.6558-.0469,1.1479-.0469l9.7671,11.313v-9.5562c0-.5859-.3281-.9839-1.2183-1.1714v-.5854c.3984,0,1.5693.0469,1.9678.0469.3511,0,1.5459-.0469,1.9673-.0469v.5854c-.8901.2578-1.2412.5854-1.2412,1.1714v13.5615h-.7495s-1.3818-1.0542-1.9678-1.7334l-8.5957-9.9546v9.7202c0,.5854.3276.9604,1.2178,1.1479v.5854c-.3979,0-1.5693-.0469-1.9673-.0469-.3516,0-1.5459.0469-1.9678.0469v-.562Z" fill="#221f1f"/><path d="m116.7983,32.9503c0-4.1689,2.9746-7.8232,7.6592-7.8232,4.6606,0,7.6353,3.6309,7.6353,7.8232,0,4.1689-2.9746,7.7295-7.6353,7.7295-4.6846,0-7.6592-3.5371-7.6592-7.7295Zm12.6011,0c0-3.373-1.4521-6.5581-4.9419-6.5581s-4.9658,3.1851-4.9658,6.5581,1.4756,6.4644,4.9658,6.4644,4.9419-3.0918,4.9419-6.4644Z" fill="#221f1f"/><path d="m135.6792,39.8834c.8901-.2578,1.2417-.5859,1.2417-1.1714v-11.2661c0-.7729-.2812-1.3115-.9136-1.499v-.5854c.5854,0,.937.0469,1.3115.0469.3516,0,.6558-.0469,1.1479-.0469l9.7671,11.313v-9.5562c0-.5859-.3281-.9839-1.2183-1.1714v-.5854c.3984,0,1.5693.0469,1.9678.0469.3511,0,1.5459-.0469,1.9673-.0469v.5854c-.8901.2578-1.2412.5854-1.2412,1.1714v13.5615h-.7495s-1.3823-1.0542-1.9678-1.7334l-8.5957-9.9546v9.7202c0,.5854.3276.9604,1.2178,1.1479v.5854c-.3979,0-1.5693-.0469-1.9673-.0469-.3516,0-1.5459.0469-1.9678.0469v-.562Z" fill="#221f1f"/><path d="m155.0298,39.86c.7964-.1406,1.1245-.7495,1.1245-1.2417v-11.5234c0-.4453-.3281-.9604-1.1245-1.1479v-.5854h9.1113c.2344,0,.6089-.0469.8667-.1875h.5854l-.0703,2.9277h-.5854c-.3281-.96-1.0308-1.4521-2.1548-1.4521h-4.1226v5.27h3.6304c.5859,0,.9839-.2808,1.2886-.8667h.6089c-.0469.4688-.0469,1.2183-.0469,1.4756,0,.2578.0234,1.0308.0234,1.499h-.5854c-.3281-.562-.7261-.8662-1.2886-.8662h-3.6304v5.9492h4.0757c1.4287,0,2.1313-.5391,2.5762-1.3818l.6094.1401-.375,2.6704c-1.4053-.1406-2.2017-.1406-3.7007-.1406h-4.4502c-.3984,0-1.8271.0469-2.3657.0469v-.5854Z" fill="#221f1f"/><path d="m190.9634,37.2365l-.1406,2.6938c-.1172-.0234-.6558.0469-1.2178.1636-1.312.2812-2.5532.5859-3.9116.5859-5.27,0-8.0806-3.4668-8.0806-7.7764,0-4.3564,3.1152-7.7764,8.0806-7.7764,1.2646,0,2.4595.3281,3.6772.5859.6558.1401.9604.1636,1.2178.1636l.1406,2.6938h-.5854c-.8433-1.6631-2.6235-2.1782-4.4502-2.1782-3.4199,0-5.3872,2.8809-5.3872,6.5112,0,2.9746,1.874,6.5112,5.3872,6.5112,1.9204,0,3.771-.3979,4.6846-2.1782h.5854Z" fill="#221f1f"/><path d="m194.6435,39.86c.7964-.1406,1.1245-.7495,1.1245-1.2417v-11.5234c0-.4453-.3281-.9604-1.1245-1.1479v-.5854h9.1113c.2344,0,.6089-.0469.8667-.1875h.5854l-.0703,2.9277h-.5854c-.3281-.96-1.0308-1.4521-2.1548-1.4521h-4.1226v5.27h3.6304c.5859,0,.9839-.2808,1.2886-.8667h.6089c-.0469.4688-.0469,1.2183-.0469,1.4756,0,.2578.0234,1.0308.0234,1.499h-.5855c-.3281-.562-.7261-.8662-1.2886-.8662h-3.6304v5.9492h4.0757c1.4287,0,2.1313-.5391,2.5762-1.3818l.6094.1401-.375,2.6704c-1.4053-.1406-2.2017-.1406-3.7007-.1406h-4.4502c-.3984,0-1.8271.0469-2.3657.0469v-.5854Z" fill="#221f1f"/><path d="m209.3315,39.8834c.8901-.2578,1.2417-.5859,1.2417-1.1714v-11.2661c0-.7729-.2812-1.3115-.9136-1.499v-.5854c.5854,0,.937.0469,1.3115.0469.3516,0,.6558-.0469,1.1479-.0469l9.7671,11.313v-9.5562c0-.5859-.3281-.9839-1.2183-1.1714v-.5854c.3984,0,1.5693.0469,1.9678.0469.3511,0,1.5459-.0469,1.9673-.0469v.5854c-.8901.2578-1.2412.5854-1.2412,1.1714v13.5615h-.7495s-1.3823-1.0542-1.9678-1.7334l-8.5957-9.9546v9.7202c0,.5854.3276.9604,1.2178,1.1479v.5854c-.3979,0-1.5693-.0469-1.9673-.0469-.3516,0-1.5459.0469-1.9678.0469v-.562Z" fill="#221f1f"/><path d="m231.8911,39.86c.8198-.1641,1.2881-.7729,1.2881-1.1948v-11.9688h-2.9746c-.8667,0-1.5459.5859-1.8271,1.71h-.5854l-.0703-3.1621c1.0542.0703,1.9678.1641,6.7222.1641s5.645-.0938,6.6987-.1641l-.0933,3.1621h-.5859c-.3042-1.1943-.9131-1.71-1.8032-1.71h-2.9746v11.9688c0,.4219.4683,1.0073,1.335,1.1948v.5854c-.5151,0-2.2251-.0469-2.6235-.0469-.3511,0-1.9673.0469-2.5059.0469v-.5854Z" fill="#221f1f"/><path d="m244.4717,39.86c.7964-.1406,1.1245-.7495,1.1245-1.2417v-11.5234c0-.4453-.3281-.9604-1.1245-1.1479v-.5854h9.1113c.2344,0,.6089-.0469.8667-.1875h.5854l-.0703,2.9277h-.5854c-.3281-.96-1.0308-1.4521-2.1548-1.4521h-4.1226v5.27h3.6304c.5859,0,.9839-.2808,1.2886-.8667h.6089c-.0469.4688-.0469,1.2183-.0469,1.4756,0,.2578.0234,1.0308.0234,1.499h-.5854c-.3281-.562-.7261-.8662-1.2886-.8662h-3.6304v5.9492h4.0757c1.4287,0,2.1313-.5391,2.5762-1.3818l.6094.1401-.375,2.6704c-1.4053-.1406-2.2017-.1406-3.7007-.1406h-4.4502c-.3984,0-1.8271.0469-2.3657.0469v-.5854Z" fill="#221f1f"/><path d="m259.394,39.86c.7729-.1641,1.1011-.7261,1.1011-1.1948v-11.5469c0-.4453-.3047-.9839-1.1245-1.1714v-.5854c.5151,0,1.9673.0469,2.3657.0469.6792,0,2.5996-.1406,3.3726-.1406,2.7173,0,5.5044,1.2417,5.5044,4.4736,0,1.8975-1.3818,3.373-3.4429,3.9585l3.4663,4.4502c.5151.6792,1.2412,1.335,1.9438,1.71v.5151c-2.1313.3281-3.0444.1875-4.2393-1.3584l-4.0054-5.1294c-.5151,0-.9131-.0469-1.335-.0938v4.8716c0,.4688.2578,1.0073,1.0542,1.1948v.5854c-.5151,0-1.9912-.0469-2.3892-.0469-.3511,0-1.7334.0469-2.272.0469v-.5854Zm3.6069-7.1675c.4219.0469.9839.0938,1.5928.0938,2.5532,0,3.3262-1.6631,3.3262-3.0684,0-1.9907-1.2417-3.3491-3.4668-3.3491-.4448,0-.9834.0469-1.4521.1406v6.1831Z" fill="#221f1f"/><path d="m48.8164,62.0187c.7261-.1401,1.124-.7261,1.124-1.335v-11.875c0-.5854-.4214-1.1011-1.124-1.2646v-.3047h6.4644c1.3584,0,2.3423-.0703,3.1387-.1172l-.0469,2.6235h-.3047c-.3042-.937-1.0068-1.499-2.2251-1.499h-3.9585v5.8086h3.584c.6558,0,1.0303-.2578,1.335-.8198h.3047c-.0234.2344-.0234,1.0073-.0234,1.2881,0,.2578.0469,1.0542.0469,1.312h-.3047c-.3047-.5391-.7026-.8198-1.3584-.8198h-3.584v5.7383c0,.5854.3047,1.0776,1.5459,1.2646v.3047c-.2808,0-1.9438-.0469-2.3418-.0469-.3516,0-1.9678.0469-2.272.0469v-.3047Z" fill="#221f1f"/><path d="m59.522,54.8283c0-4.1924,2.8809-7.8232,7.4248-7.8232,4.5205,0,7.4014,3.6074,7.4014,7.8232,0,4.1924-2.8809,7.7295-7.4014,7.7295-4.5439,0-7.4248-3.5137-7.4248-7.7295Zm12.6948,0c0-3.5132-1.5693-6.8862-5.27-6.8862s-5.27,3.373-5.27,6.8862,1.5693,6.7925,5.27,6.7925,5.27-3.2793,5.27-6.7925Z" fill="#221f1f"/><path d="m76.2954,62.0187c.6792-.1401,1.1006-.6792,1.1006-1.2881v-11.9219c0-.5854-.3979-1.1011-1.124-1.2646v-.3047c.2808,0,1.7329.0469,2.1313.0469.6792,0,2.5996-.1406,3.3726-.1406,2.6704,0,5.2466,1.2417,5.2466,4.3799,0,1.9209-1.4053,3.4199-3.5835,3.9351l3.6772,4.7783c.5386.7026,1.2646,1.4287,1.8975,1.7798v.2578c-1.874.3047-2.6704.1641-3.8179-1.335l-4.0757-5.2935c-.6558,0-1.2881-.0469-1.7798-.1172v5.1997c0,.6089.4448,1.1245,1.1475,1.2881v.3047c-.2812,0-1.7568-.0469-2.1548-.0469-.3516,0-1.7334.0469-2.0376.0469v-.3047Zm3.0449-7.3545c.3979.0703,1.2412.1406,1.9673.1406,2.6934,0,3.6538-1.7334,3.6538-3.3027,0-2.2017-1.4521-3.5835-3.7944-3.5835-.5151,0-1.335.0469-1.8267.1875v6.5581Z" fill="#221f1f"/><path d="m108.293,59.3488l-.1406,2.436c-.0469-.0234-.3984.0234-1.0542.1636-.6089.1406-2.272.6094-3.8647.6094-5.1294,0-7.8462-3.4434-7.8462-7.7764,0-4.3564,3.0215-7.7764,7.8462-7.7764,1.4287,0,3.0215.4688,3.6304.6094.6562.1401.9839.1636,1.0542.1636l.1406,2.436h-.3047c-.3276-.6558-.8433-1.1709-1.4287-1.5225-.8198-.4917-1.9673-.7495-3.0918-.7495-3.6069,0-5.7148,3.0215-5.7148,6.8394,0,3.1152,2.0142,6.8394,5.7148,6.8394,1.4053,0,2.5063-.2578,3.3262-.7495.5854-.3516,1.1006-.8667,1.4287-1.5225h.3047Z" fill="#221f1f"/><path d="m109.396,62.0187c.8667-.3042,1.124-.7495,1.4521-1.5693l4.708-11.6406c.2104-.5151.5386-1.71.5386-1.71h1.2178s.3047,1.1948.4922,1.71l4.3564,11.6406c.3276.8667.6558,1.3354,1.5225,1.5693v.3047c-.3516,0-1.7334-.0469-2.0845-.0469-.3516,0-1.6865.0469-2.0381.0469v-.3047c.6323-.2104.7729-.562.7026-.9834-.0234-.1875-.2104-.7261-.2808-.8901l-.8901-2.272h-5.9727l-.7964,1.9438c-.0938.2109-.3281,1.0308-.3516,1.1479-.0933.4917.1875.8433.8433,1.0537v.3047c-.2808,0-1.2646-.0469-1.5693-.0469-.3042,0-1.4756.0469-1.8501.0469v-.3047Zm9.3452-5.1528l-2.5293-6.6753-2.6938,6.6753h5.2231Z" fill="#221f1f"/><path d="m124.8105,62.0187c.6792-.1401,1.1006-.6792,1.1006-1.2881v-11.9219c0-.5854-.3979-1.1011-1.124-1.2646v-.3047c.2808,0,1.7329.0469,2.1313.0469.6792,0,2.5996-.1406,3.3726-.1406,2.6704,0,5.2466,1.2417,5.2466,4.3799,0,1.9209-1.4053,3.4199-3.5835,3.9351l3.6772,4.7783c.5386.7026,1.2646,1.4287,1.8975,1.7798v.2578c-1.874.3047-2.6704.1641-3.8179-1.335l-4.0757-5.2935c-.6558,0-1.2881-.0469-1.7803-.1172v5.1997c0,.6089.4453,1.1245,1.1479,1.2881v.3047c-.2812,0-1.7568-.0469-2.1548-.0469-.3516,0-1.7334.0469-2.0376.0469v-.3047Zm3.0444-7.3545c.3984.0703,1.2417.1406,1.9678.1406,2.6934,0,3.6538-1.7334,3.6538-3.3027,0-2.2017-1.4521-3.5835-3.7944-3.5835-.5151,0-1.335.0469-1.8271.1875v6.5581Z" fill="#221f1f"/><path d="m138.5849,62.0187c.7261-.1401,1.124-.7261,1.124-1.335v-11.875c0-.5854-.4214-1.1011-1.124-1.2646v-.3047h8.877c.2573,0,.6558-.0469.9136-.1875h.3042l-.0469,2.6938h-.3042c-.3047-.937-1.0073-1.499-2.2251-1.499h-4.4507v5.6914h3.9585c.6558,0,1.0308-.2109,1.335-.7729h.3047c-.0234.2344-.0234.9604-.0234,1.2412,0,.2578.0234,1.0073.0234,1.2651h-.3047c-.3042-.5386-.6792-.7729-1.335-.7729h-3.9585v6.3706h4.4038c1.499,0,2.2251-.4683,2.6465-1.4053l.3047.0703-.3516,2.4595c-1.1943-.1172-1.9907-.1172-3.4897-.1172h-4.4502c-.3984,0-1.8271.0469-2.1313.0469v-.3047Z" fill="#221f1f"/><path d="m151.0014,62.0187c.7261-.1401,1.124-.7261,1.124-1.335v-11.875c0-.5854-.4214-1.1011-1.124-1.2646v-.3047h8.877c.2573,0,.6558-.0469.9136-.1875h.3042l-.0469,2.6938h-.3042c-.3047-.937-1.0073-1.499-2.2251-1.499h-4.4502v5.6914h3.958c.6558,0,1.0308-.2109,1.335-.7729h.3047c-.0234.2344-.0234.9604-.0234,1.2412,0,.2578.0234,1.0073.0234,1.2651h-.3047c-.3042-.5386-.6792-.7729-1.335-.7729h-3.958v6.3706h4.4033c1.499,0,2.2251-.4683,2.6465-1.4053l.3047.0703-.3516,2.4595c-1.1943-.1172-1.9907-.1172-3.4897-.1172h-4.4502c-.3984,0-1.8271.0469-2.1313.0469v-.3047Z" fill="#221f1f"/><path d="m163.4409,62.0187c.6792-.1401,1.1006-.6792,1.1006-1.2881v-11.9219c0-.5854-.3979-1.1011-1.124-1.2646v-.3047c.2808,0,1.7329.0469,2.1313.0469.6792,0,2.5996-.1406,3.3726-.1406,2.6704,0,5.2466,1.2417,5.2466,4.3799,0,1.9209-1.4053,3.4199-3.5835,3.9351l3.6772,4.7783c.5386.7026,1.2646,1.4287,1.8975,1.7798v.2578c-1.874.3047-2.6704.1641-3.8179-1.335l-4.0757-5.2935c-.6558,0-1.2881-.0469-1.7798-.1172v5.1997c0,.6089.4448,1.1245,1.1475,1.2881v.3047c-.2812,0-1.7568-.0469-2.1548-.0469-.3516,0-1.7334.0469-2.0376.0469v-.3047Zm3.0449-7.3545c.3979.0703,1.2412.1406,1.9673.1406,2.6934,0,3.6538-1.7334,3.6538-3.3027,0-2.2017-1.4521-3.5835-3.7944-3.5835-.5151,0-1.335.0469-1.8267.1875v6.5581Z" fill="#221f1f"/><path d="m182.8838,59.255h.3047c.1641.6558.6089,1.3584,1.1006,1.6865.7026.4683,1.8271.6792,2.647.6792,1.8032,0,3.2559-.6792,3.2559-2.5767,0-.8433-.2109-1.6396-.937-2.1313-1.2183-.8433-2.9277-1.4287-4.4502-2.2017-1.2651-.6323-2.272-1.5693-2.272-3.4897,0-2.9277,2.4126-4.2163,5.2935-4.2163,1.1709,0,2.5059.3281,3.6772.2812l.1172,2.7871h-.3047c-.1875-.5854-.6558-1.1475-1.1475-1.4756-.7031-.4448-1.6865-.6558-2.5298-.6558-1.8037,0-3.1621.937-3.1621,2.5063,0,1.2646.6089,2.0142,1.4521,2.5059,1.3584.7964,3.1855,1.4292,4.5439,2.272.9839.6094,1.6396,1.4756,1.6396,2.9282,0,2.7871-2.0845,4.4033-5.0591,4.4033-1.3818,0-2.6704-.3047-4.0757-.7026l-.0938-2.6001Z" fill="#221f1f"/><path d="m195.0654,48.8322c0-.6089-.4448-1.1245-1.1475-1.2881v-.3047c.2808,0,1.7563.0469,2.1548.0469.3511,0,1.7334-.0469,2.0376-.0469v.3047c-.6792.1401-1.1006.6792-1.1006,1.2881v8.7129c0,2.7642,1.9907,4.0757,4.0049,4.0757,2.3657,0,4.8252-1.1479,4.8252-4.0757v-8.7363c0-.7495-.4453-1.1011-1.2183-1.2646v-.3047c.1641,0,1.3354.0469,1.7334.0469.3516,0,1.5459-.0469,1.7334-.0469v.3047c-.7495.2104-1.2412.4917-1.2412,1.2646v8.1509c0,3.7007-2.085,5.5981-6.2539,5.5981-3.8413,0-5.5278-2.2485-5.5278-5.5981v-8.1274Z" fill="#221f1f"/><path d="m222.8008,59.3488l-.1406,2.436c-.0469-.0234-.3984.0234-1.0542.1636-.6089.1406-2.272.6094-3.8647.6094-5.1294,0-7.8462-3.4434-7.8462-7.7764,0-4.3564,3.0215-7.7764,7.8462-7.7764,1.4287,0,3.0215.4688,3.6304.6094.6562.1401.9839.1636,1.0542.1636l.1406,2.436h-.3047c-.3276-.6558-.8433-1.1709-1.4287-1.5225-.8198-.4917-1.9673-.7495-3.0918-.7495-3.6069,0-5.7148,3.0215-5.7148,6.8394,0,3.1152,2.0142,6.8394,5.7148,6.8394,1.4053,0,2.5063-.2578,3.3262-.7495.5854-.3516,1.1006-.8667,1.4287-1.5225h.3047Z" fill="#221f1f"/><path d="m237.6294,59.3488l-.1406,2.436c-.0469-.0234-.3984.0234-1.0542.1636-.6089.1406-2.272.6094-3.8647.6094-5.1294,0-7.8462-3.4434-7.8462-7.7764,0-4.3564,3.0215-7.7764,7.8462-7.7764,1.4287,0,3.0215.4688,3.6304.6094.6562.1401.9839.1636,1.0542.1636l.1406,2.436h-.3047c-.3276-.6558-.8433-1.1709-1.4287-1.5225-.8198-.4917-1.9673-.7495-3.0918-.7495-3.6069,0-5.7148,3.0215-5.7148,6.8394,0,3.1152,2.0142,6.8394,5.7148,6.8394,1.4053,0,2.5063-.2578,3.3262-.7495.5854-.3516,1.1006-.8667,1.4287-1.5225h.3047Z" fill="#221f1f"/><path d="m239.6694,62.0187c.7261-.1401,1.124-.7261,1.124-1.335v-11.875c0-.5854-.4214-1.1011-1.124-1.2646v-.3047h8.877c.2573,0,.6558-.0469.9136-.1875h.3042l-.0469,2.6938h-.3042c-.3047-.937-1.0073-1.499-2.2251-1.499h-4.4502v5.6914h3.958c.6558,0,1.0308-.2109,1.335-.7729h.3047c-.0234.2344-.0234.9604-.0234,1.2412,0,.2578.0234,1.0073.0234,1.2651h-.3047c-.3042-.5386-.6792-.7729-1.335-.7729h-3.958v6.3706h4.4033c1.499,0,2.2251-.4683,2.6465-1.4053l.3047.0703-.3516,2.4595c-1.1943-.1172-1.9907-.1172-3.4897-.1172h-4.4502c-.3984,0-1.8271.0469-2.1313.0469v-.3047Z" fill="#221f1f"/><path d="m252.3193,59.255h.3047c.1641.6558.6089,1.3584,1.1006,1.6865.7026.4683,1.8271.6792,2.647.6792,1.8032,0,3.2559-.6792,3.2559-2.5767,0-.8433-.2109-1.6396-.937-2.1313-1.2183-.8433-2.9277-1.4287-4.4502-2.2017-1.2651-.6323-2.272-1.5693-2.272-3.4897,0-2.9277,2.4126-4.2163,5.2935-4.2163,1.1709,0,2.5059.3281,3.6772.2812l.1172,2.7871h-.3047c-.1875-.5854-.6558-1.1475-1.1475-1.4756-.7031-.4448-1.6865-.6558-2.5298-.6558-1.8037,0-3.1621.937-3.1621,2.5063,0,1.2646.6089,2.0142,1.4521,2.5059,1.3584.7964,3.1855,1.4292,4.5439,2.272.9839.6094,1.6396,1.4756,1.6396,2.9282,0,2.7871-2.0845,4.4033-5.0591,4.4033-1.3818,0-2.6704-.3047-4.0757-.7026l-.0938-2.6001Z" fill="#221f1f"/><path d="m263.7046,59.255h.3047c.1641.6558.6089,1.3584,1.1006,1.6865.7026.4683,1.8271.6792,2.647.6792,1.8032,0,3.2559-.6792,3.2559-2.5767,0-.8433-.2109-1.6396-.937-2.1313-1.2183-.8433-2.9277-1.4287-4.4502-2.2017-1.2651-.6323-2.272-1.5693-2.272-3.4897,0-2.9277,2.4126-4.2163,5.2935-4.2163,1.1709,0,2.5059.3281,3.6772.2812l.1172,2.7871h-.3047c-.1875-.5854-.6558-1.1475-1.1475-1.4756-.7026-.4448-1.6865-.6558-2.5298-.6558-1.8037,0-3.1621.937-3.1621,2.5063,0,1.2646.6089,2.0142,1.4521,2.5059,1.3584.7964,3.1855,1.4292,4.5439,2.272.9839.6094,1.6396,1.4756,1.6396,2.9282,0,2.7871-2.0845,4.4033-5.0591,4.4033-1.3818,0-2.6704-.3047-4.0757-.7026l-.0938-2.6001Z" fill="#221f1f"/></svg>
